# xmcd CD database file
#
# Track frame offsets:
#	150
#	11468
#	20259
#	35764
#	45463
#	55934
#	67840
#	78091
#	89202
#	104831
#	116891
#	126051
#	133967
#	146537
#	157495
#	164208
#	170920
#	177774
#	185542
#	194138
#	200948
#	210868
#
# Disc length: 2939 seconds
#
# Revision: 0
# Processed by: cddbd v1.5.2PL0 Copyright (c) Steve Scherf et al.
# Submitted via: CDex 1.51
#
DISCID=570b7916
DTITLE=Josh Parker - Josh
DYEAR=2008
DGENRE=Jazz
TTITLE0=Deep Purple
TTITLE1=Limehouse Blues
TTITLE2=Night and Day
TTITLE3=Sentimental Over You
TTITLE4=Don't Get Around Much Anymore
TTITLE5=As Time Goes By
TTITLE6=All of Me
TTITLE7=Embraceable You
TTITLE8=Military Medley
TTITLE9=Dancing in the Dark
TTITLE10=I'll Be Seeing You
TTITLE11=Beer Barrel Polka
TTITLE12=Ain't Misbehavin'
TTITLE13=The Man I Love
TTITLE14=Someone to Watch Over Me
TTITLE15=On the Sunny Side of the Street
TTITLE16=Yankee Doodle Medley
TTITLE17=After You've Gone
TTITLE18=Crazy
TTITLE19=Sittin' on Top of the World
TTITLE20=It Had to Be You
TTITLE21=Long Ago and Far Away
EXTD=YEAR: 2008
EXTT0=
EXTT1=
EXTT2=
EXTT3=
EXTT4=
EXTT5=
EXTT6=
EXTT7=
EXTT8=
EXTT9=
EXTT10=
EXTT11=
EXTT12=
EXTT13=
EXTT14=
EXTT15=
EXTT16=
EXTT17=
EXTT18=
EXTT19=
EXTT20=
EXTT21=
PLAYORDER=
